<svg width="40" height="40" viewBox="0 0 40 40" fill="none" xmlns="http://www.w3.org/2000/svg">
<path d="M27.5 15.6667L12.5 7.01666" stroke="black" stroke-width="2" stroke-linecap="round" stroke-linejoin="round"/>
<path d="M35 26.6667V13.3333C34.9994 12.7488 34.8451 12.1747 34.5526 11.6686C34.26 11.1625 33.8396 10.7423 33.3333 10.45L21.6667 3.78333C21.1599 3.49077 20.5851 3.33675 20 3.33675C19.4149 3.33675 18.8401 3.49077 18.3333 3.78333L6.66667 10.45C6.16044 10.7423 5.73997 11.1625 5.44744 11.6686C5.1549 12.1747 5.0006 12.7488 5 13.3333V26.6667C5.0006 27.2512 5.1549 27.8253 5.44744 28.3314C5.73997 28.8375 6.16044 29.2577 6.66667 29.55L18.3333 36.2167C18.8401 36.5092 19.4149 36.6632 20 36.6632C20.5851 36.6632 21.1599 36.5092 21.6667 36.2167L33.3333 29.55C33.8396 29.2577 34.26 28.8375 34.5526 28.3314C34.8451 27.8253 34.9994 27.2512 35 26.6667Z" stroke="black" stroke-width="2" stroke-linecap="round" stroke-linejoin="round"/>
<path d="M5.45001 11.6L20 20.0167L34.55 11.6" stroke="black" stroke-width="2" stroke-linecap="round" stroke-linejoin="round"/>
<path d="M20 36.8V20" stroke="black" stroke-width="2" stroke-linecap="round" stroke-linejoin="round"/>
</svg>
